Genre:Action | Crime | Drama
Language:English  http://www.imdb.com/title/tt1433108/
Source:1080p.BluRay.x264-SECTOR7
Subtitles:Romana


Format                           : MPEG-4
Format profile                   : Base Media
Codec ID                         : isom
File size                        : 2.19 GiB
Duration                         : 1h 37mn
Overall bit rate                 : 3 206 Kbps


Video
Format settings, CABAC           : Yes
Format settings, ReFrames        : 3 frames
Codec ID                         : avc1
Codec ID/Info                    : Advanced Video Coding
Duration                         : 1h 37mn
Bit rate mode                    : Variable
Bit rate                         : 2 815 Kbps
Maximum bit rate                 : 12.7 Mbps
Width                            : 1 280 pixels
Height                           : 544 pixels
Display aspect ratio             : 2.35:1
Frame rate mode                  : Constant
Frame rate                       : 23.976 fps
Color space                      : YUV
Chroma subsampling               : 4:2:0
Bit depth                        : 8 bits
Scan type                        : Progressive
Bits/(Pixel*Frame)               : 0.169
Stream size                      : 1.89 GiB (86%)
Writing library                  : x264

Audio
ID                               : 2
Format                           : AAC
Format/Info                      : Advanced Audio Codec
Format version                   : Version 4
Format profile                   : LC
Format settings, SBR             : No
Codec ID                         : 40
Duration                         : 1h 37mn
Bit rate mode                    : Variable
Bit rate                         : 440 Kbps
Maximum bit rate                 : 632 Kbps
Channel(s)                       : 6 channels
Channel positions                : Front: L C R, Side: L R, LFE
Sampling rate                    : 48.0 KHz
Stream size                      : 308 MiB (14%)

 
Plot:
 An ex-con sets out to avenge his brother's death after they were double-crossed during a heist years ago. During his campaign, however, he's tracked by a veteran cop and an egocentric hit man.

